<?xml version="1.0" encoding="UTF-8" standalone="no"?>
<!-- Created with Inkscape (http://www.inkscape.org/) -->

<svg
   width="370.38995mm"
   height="97.147453mm"
   viewBox="0 0 370.38994 97.147454"
   version="1.1"
   id="svg1"
   inkscape:version="1.3.2 (091e20e, 2023-11-25, custom)"
   sodipodi:docname="long-text-obj-light.svg"
   xmlns:inkscape="http://www.inkscape.org/namespaces/inkscape"
   xmlns:sodipodi="http://sodipodi.sourceforge.net/DTD/sodipodi-0.dtd"
   xmlns="http://www.w3.org/2000/svg"
   xmlns:svg="http://www.w3.org/2000/svg">
  <sodipodi:namedview
     id="namedview1"
     pagecolor="#505050"
     bordercolor="#eeeeee"
     borderopacity="1"
     inkscape:showpageshadow="0"
     inkscape:pageopacity="0"
     inkscape:pagecheckerboard="0"
     inkscape:deskcolor="#505050"
     inkscape:document-units="mm"
     inkscape:zoom="0.26803444"
     inkscape:cx="417.85675"
     inkscape:cy="-110.06048"
     inkscape:window-width="1920"
     inkscape:window-height="1009"
     inkscape:window-x="-8"
     inkscape:window-y="-8"
     inkscape:window-maximized="1"
     inkscape:current-layer="layer1"
     showgrid="false" />
  <defs
     id="defs1">
    <inkscape:path-effect
       effect="envelope"
       id="path-effect33"
       is_visible="true"
       lpeversion="1"
       yy="false"
       xx="true"
       bendpath1="m 281.03492,121.72118 h 42.56837"
       bendpath2="M 310.68171,103.78344 V 118.0079"
       bendpath3="m 281.03492,135.94564 h 42.56837"
       bendpath4="m 281.03492,121.72118 v 14.22446"
       bendpath2-nodetypes="cc" />
    <inkscape:path-effect
       effect="perspective-envelope"
       up_left_point="281.03492,121.72118"
       up_right_point="323.60329,121.72118"
       down_left_point="281.03492,135.94564"
       down_right_point="323.60329,135.94564"
       id="path-effect32"
       is_visible="true"
       lpeversion="1"
       deform_type="perspective"
       horizontal_mirror="false"
       vertical_mirror="false"
       overflow_perspective="false" />
    <inkscape:path-effect
       effect="envelope"
       id="path-effect31"
       is_visible="true"
       lpeversion="1"
       yy="false"
       xx="true"
       bendpath1="M 290.60067,53.561947 H 541.0693"
       bendpath2="m 520.8184,189.06681 v 57.67942"
       bendpath3="M 290.60067,111.24137 H 541.0693"
       bendpath4="M 290.60067,53.561947 V 111.24137"
       bendpath2-nodetypes="cc" />
    <inkscape:path-effect
       effect="envelope"
       id="path-effect19"
       is_visible="true"
       lpeversion="1"
       yy="false"
       xx="true"
       bendpath1="m 271.03088,57.787137 115.22558,11.1125"
       bendpath2="M 609.04894,24.477158 545.30507,139.2482"
       bendpath3="M 271.03088,93.289689 386.25646,104.40219"
       bendpath4="M 255.91943,38.242715 192.68172,153.1057"
       bendpath1-nodetypes="cc"
       bendpath3-nodetypes="cc"
       bendpath2-nodetypes="cc"
       bendpath4-nodetypes="cc" />
    <inkscape:path-effect
       effect="envelope"
       id="path-effect19-2"
       is_visible="true"
       lpeversion="1"
       yy="false"
       xx="true"
       bendpath1="m 271.03088,57.787137 115.22558,11.1125"
       bendpath2="m 341.99141,25.478301 v 35.50255"
       bendpath3="M 271.03088,93.289689 386.25646,104.40219"
       bendpath4="M 270.35879,67.250071 V 102.75262"
       bendpath1-nodetypes="cc"
       bendpath3-nodetypes="cc"
       bendpath2-nodetypes="cc" />
  </defs>
  <g
     inkscape:label="Calque 1"
     inkscape:groupmode="layer"
     id="layer1"
     transform="translate(179.27014,-43.213117)">
    <g
       id="text11-9-8"
       style="font-size:19.5391px;line-height:1.1;font-family:Montserrat;-inkscape-font-specification:'Montserrat, @wght=600';font-variation-settings:'wght' 600;text-align:center;letter-spacing:0.264583px;text-anchor:middle;fill:#ffffff;fill-opacity:1;stroke-width:11.7718;stroke-linecap:square;stroke-miterlimit:5.5;paint-order:markers stroke fill"
       aria-label="STORAGE&#10;    MANAGER"
       transform="matrix(0.38200729,0,0,0.38200729,255.36899,53.235382)"
       inkscape:path-effect="#path-effect19-2" />
    <g
       id="text1"
       style="font-size:63.9128px;line-height:0.8;font-family:Montserrat;-inkscape-font-specification:'Montserrat, Normal';letter-spacing:4.3273px;fill:#fdfdfd;stroke-width:6.21493;stroke-linecap:square;stroke-miterlimit:5.5;stroke-dasharray:24.8597, 12.4299;paint-order:markers stroke fill;fill-opacity:1"
       aria-label="STORAGE&#10;MANAGER">
      <path
         style="-inkscape-font-specification:'Montserrat, @wght=500';font-variation-settings:'wght' 500;fill:#fdfdfd;fill-opacity:1"
         d="m -162.14151,88.974681 q -5.11302,0 -9.77866,-1.533907 -4.66563,-1.59782 -7.34997,-4.090419 l 2.36477,-4.985198 q 2.55652,2.236948 6.51911,3.706942 3.96259,1.469994 8.24475,1.469994 3.89868,0 6.32737,-0.894779 2.42868,-0.894779 3.57912,-2.428686 1.15043,-1.59782 1.15043,-3.579117 0,-2.300861 -1.53391,-3.706942 -1.47,-1.406082 -3.89868,-2.236948 -2.36478,-0.89478 -5.24085,-1.533908 -2.87608,-0.639128 -5.81607,-1.469994 -2.87607,-0.894779 -5.30476,-2.236948 -2.36477,-1.342169 -3.83477,-3.579117 -1.46999,-2.300861 -1.46999,-5.879977 0,-3.451292 1.78956,-6.327368 1.85347,-2.939988 5.62432,-4.665634 3.83477,-1.789558 9.71475,-1.789558 3.89868,0 7.73345,1.022604 3.83477,1.022605 6.64693,2.939989 l -2.10912,5.113024 q -2.87608,-1.917384 -6.07172,-2.74825 -3.19564,-0.894779 -6.19954,-0.894779 -3.77086,0 -6.19954,0.958692 -2.42869,0.958692 -3.57912,2.556512 -1.08652,1.59782 -1.08652,3.579116 0,2.364774 1.47,3.770856 1.5339,1.406081 3.89868,2.236948 2.42868,0.830866 5.30476,1.533907 2.87608,0.639128 5.75215,1.469994 2.93999,0.830867 5.30476,2.173035 2.42869,1.342169 3.89869,3.579117 1.46999,2.236948 1.46999,5.752152 0,3.387379 -1.85347,6.327367 -1.85347,2.876076 -5.75215,4.665635 -3.83477,1.725645 -9.71475,1.725645 z m 39.22369,-0.511302 V 49.284833 h -15.33907 v -5.560414 h 37.00551 v 5.560414 h -15.33907 v 39.178546 z m 52.51753,0.511302 q -5.113024,0 -9.523007,-1.725645 -4.346071,-1.725646 -7.541711,-4.79346 -3.19564,-3.131727 -4.985198,-7.286059 -1.789559,-4.154332 -1.789559,-9.075618 0,-4.921286 1.789559,-9.075618 1.789558,-4.154332 4.985198,-7.222146 3.19564,-3.131727 7.541711,-4.857373 4.34607,-1.725645 9.523007,-1.725645 5.113024,0 9.395181,1.725645 4.346071,1.661733 7.541711,4.79346 3.259552,3.067815 4.985198,7.222147 1.789558,4.154332 1.789558,9.13953 0,4.985198 -1.789558,9.13953 -1.725646,4.154332 -4.985198,7.28606 -3.19564,3.067814 -7.541711,4.79346 -4.282157,1.661732 -9.395181,1.661732 z m 0,-5.688239 q 3.706942,0 6.838669,-1.278256 3.19564,-1.278256 5.496501,-3.579117 2.364774,-2.364773 3.64303,-5.4965 1.342168,-3.131728 1.342168,-6.83867 0,-3.706942 -1.342168,-6.83867 -1.278256,-3.131727 -3.64303,-5.432588 -2.300861,-2.364773 -5.496501,-3.643029 -3.131727,-1.278256 -6.838669,-1.278256 -3.770856,0 -6.966495,1.278256 -3.131728,1.278256 -5.496501,3.643029 -2.364774,2.300861 -3.706943,5.432588 -1.278256,3.131728 -1.278256,6.83867 0,3.706942 1.278256,6.83867 1.342169,3.131727 3.706943,5.4965 2.364773,2.300861 5.496501,3.579117 3.195639,1.278256 6.966495,1.278256 z m 37.817616,5.176937 v -44.73896 h 17.448194 q 5.8799779,0 10.0343098,1.853471 4.15433203,1.853471 6.39128,5.368675 2.236948,3.515204 2.236948,8.372577 0,4.857373 -2.236948,8.372577 -2.23694797,3.451291 -6.39128,5.304762 -4.1543319,1.853472 -10.0343098,1.853472 h -13.93299 l 2.876076,-2.939989 v 16.553415 z m 29.9111902,0 -11.3764782,-16.233851 h 6.8386695 L 4.2950114,88.463379 Z M -26.191394,72.549092 -29.06747,69.417365 h 13.741252 q 6.1356287,0 9.2673558,-2.620425 3.19564,-2.684338 3.19564,-7.477798 0,-4.79346 -3.19564,-7.413885 -3.1317271,-2.620424 -9.2673558,-2.620424 H -29.06747 l 2.876076,-3.19564 z m 37.625833,15.914287 20.260358,-44.73896 h 6.327367 l 20.32427,44.73896 H 51.63559 L 33.548268,47.303536 H 36.10478 L 18.017458,88.463379 Z m 8.628228,-11.18474 1.725646,-5.113024 h 25.181643 l 1.853471,5.113024 z m 68.81531,11.696042 q -5.176937,0 -9.523008,-1.661732 -4.34607,-1.725646 -7.54171,-4.79346 -3.19564,-3.131728 -4.985198,-7.28606 -1.789559,-4.154332 -1.789559,-9.13953 0,-4.985198 1.789559,-9.13953 1.789558,-4.154332 4.985198,-7.222147 3.259553,-3.131727 7.605623,-4.79346 4.346071,-1.725645 9.58692,-1.725645 5.304763,0 9.714746,1.725645 4.409982,1.725646 7.477802,5.176937 l -3.9626,3.962594 q -2.748249,-2.684338 -6.007801,-3.898681 -3.19564,-1.278256 -6.966496,-1.278256 -3.834768,0 -7.158233,1.278256 -3.259553,1.278256 -5.688239,3.579117 -2.364774,2.30086 -3.706943,5.4965 -1.278256,3.131728 -1.278256,6.83867 0,3.64303 1.278256,6.83867 1.342169,3.131727 3.706943,5.4965 2.428686,2.300861 5.688239,3.579117 3.259553,1.278256 7.094321,1.278256 3.579116,0 6.838669,-1.086517 3.323466,-1.150431 6.13563,-3.770856 l 3.64303,4.857373 q -3.32347,2.812163 -7.797363,4.282158 -4.409983,1.406081 -9.13953,1.406081 z M 99.67924,82.455576 V 65.838248 h 6.13563 v 17.448194 z m 28.48631,-19.429491 h 23.00861 v 5.432588 h -23.00861 z m 0.57522,19.87688 h 26.07642 v 5.560414 h -32.4677 v -44.73896 h 31.57292 v 5.560414 h -25.18164 z"
         id="path9" />
      <path
         style="-inkscape-font-specification:'Montserrat, @wght=700';font-variation-settings:'wght' 700;fill:#fdfdfd;fill-opacity:1"
         d="M -176.5858,139.59362 V 94.85466 h 8.56431 l 19.04602,31.57292 h -4.53781 l 18.72645,-31.57292 h 8.5004 l 0.12783,44.73896 h -9.71475 l -0.0639,-29.84728 h 1.78956 l -14.9556,25.11773 h -4.66563 l -15.27516,-25.11773 h 2.17303 v 29.84728 z m 59.48404,0 19.940796,-44.73896 h 10.226048 l 20.004706,44.73896 h -10.865176 l -16.361677,-39.49811 h 4.090419 l -16.425586,39.49811 z m 9.9704,-9.58692 2.74825,-7.86127 h 23.008607 l 2.812163,7.86127 z m 49.194133,9.58692 V 94.85466 h 8.564315 l 26.395987,32.21205 h -4.154332 V 94.85466 h 10.226048 v 44.73896 h -8.500403 l -26.459899,-32.21205 h 4.154332 v 32.21205 z m 50.0888947,0 19.9407933,-44.73896 h 10.226048 l 20.004707,44.73896 H 31.45804 L 15.096363,100.09551 h 4.090419 L 2.7611925,139.59362 Z m 9.9703968,-9.58692 2.7482504,-7.86127 H 27.878923 l 2.812163,7.86127 z m 70.1575235,10.35387 q -5.304762,0 -9.778658,-1.66173 -4.409984,-1.72565 -7.733449,-4.85737 -3.259553,-3.13173 -5.113024,-7.34997 -1.789559,-4.21825 -1.789559,-9.26736 0,-5.04911 1.789559,-9.26736 1.853471,-4.21824 5.176937,-7.34997 3.323465,-3.131726 7.797361,-4.793458 4.473896,-1.725646 9.842571,-1.725646 5.943891,0 10.673438,1.981297 4.79346,1.981297 8.053013,5.752147 l -6.646932,6.13563 q -2.428686,-2.55651 -5.304762,-3.77085 -2.876076,-1.27826 -6.263454,-1.27826 -3.259553,0 -5.943891,1.02261 -2.684337,1.0226 -4.665634,2.93999 -1.917384,1.91738 -3.003902,4.5378 -1.022604,2.62043 -1.022604,5.81607 0,3.13173 1.022604,5.75215 1.086518,2.62043 3.003902,4.60172 1.981297,1.91739 4.601722,2.93999 2.684337,1.02261 5.879977,1.02261 3.067815,0 5.943891,-0.9587 2.939988,-1.0226 5.688239,-3.38737 l 5.879977,7.47779 q -3.643029,2.74825 -8.500402,4.21825 -4.79346,1.46999 -9.58692,1.46999 z m 8.628228,-7.0304 V 116.5211 h 9.459094 v 18.15123 z m 32.896304,-20.4521 h 21.53861 v 8.05301 h -21.53861 z m 0.76695,18.40689 h 24.35078 v 8.30866 H 104.28111 V 94.85466 h 33.80987 v 8.30866 h -23.51991 z m 36.92281,8.30866 V 94.85466 h 19.36558 q 6.0078,0 10.35387,1.981296 4.34607,1.917384 6.71085,5.560414 2.36477,3.64303 2.36477,8.69214 0,4.9852 -2.36477,8.62823 -2.36478,3.57912 -6.71085,5.4965 -4.34607,1.91738 -10.35387,1.91738 h -13.61343 l 4.60172,-4.53781 v 17.00081 z m 28.4412,0 -11.18474,-16.23385 h 11.05691 l 11.31257,16.23385 z m -18.08733,-15.85037 -4.60172,-4.85738 h 13.03821 q 4.79346,0 7.15824,-2.04521 2.36477,-2.10912 2.36477,-5.75215 0,-3.70694 -2.36477,-5.75215 -2.36478,-2.04521 -7.15824,-2.04521 h -13.03821 l 4.60172,-4.921286 z"
         id="path10" />
    </g>
  </g>
</svg>
